HIERARCHY
ROOT Hips
{
  OFFSET -187.679 86.5976 -156.378
  CHANNELS 6 Xposition Yposition Zposition Zrotation Xrotation Yrotation
  JOINT LeftUpLeg
  {
    OFFSET 8.64259 1.95398 -2.38835
    CHANNELS 3 Zrotation Xrotation Yrotation
    JOINT LeftLeg
    {
      OFFSET 43.7702 0 0
      CHANNELS 3 Zrotation Xrotation Yrotation
      JOINT LeftFoot
      {
        OFFSET 40.6238 0 0
        CHANNELS 3 Zrotation Xrotation Yrotation
        JOINT LeftToeBase
        {
          OFFSET 12.7242 0 0
          CHANNELS 3 Zrotation Xrotation Yrotation
          End Site
          {
            OFFSET 0 0 0
          }
        }
      }
    }
  }
  JOINT RightUpLeg
  {
    OFFSET -8.2249 1.95398 -2.59336
    CHANNELS 3 Zrotation Xrotation Yrotation
    JOINT RightLeg
    {
      OFFSET 43.5653 0 0
      CHANNELS 3 Zrotation Xrotation Yrotation
      JOINT RightFoot
      {
        OFFSET 40.6238 0 0
        CHANNELS 3 Zrotation Xrotation Yrotation
        JOINT RightToeBase
        {
          OFFSET 12.7242 0 0
          CHANNELS 3 Zrotation Xrotation Yrotation
          End Site
          {
            OFFSET 0 0 0
          }
        }
      }
    }
  }
  JOINT Spine
  {
    OFFSET 0.165834 0.87714 6.61349
    CHANNELS 3 Zrotation Xrotation Yrotation
    JOINT Spine1
    {
      OFFSET 7.38963 1.71661e-005 0
      CHANNELS 3 Zrotation Xrotation Yrotation
      JOINT Spine2
      {
        OFFSET 11.9445 1.14441e-005 0
        CHANNELS 3 Zrotation Xrotation Yrotation
        JOINT Spine3
        {
          OFFSET 14.7254 4.19617e-005 0
          CHANNELS 3 Zrotation Xrotation Yrotation
          JOINT Spine4
          {
            OFFSET 10.9679 0 0
            CHANNELS 3 Zrotation Xrotation Yrotation
            JOINT RightShoulder
            {
              OFFSET 2.46616 -1.6653 3.69651
              CHANNELS 3 Zrotation Xrotation Yrotation
              JOINT RightArm
              {
                OFFSET 13.0012 0 0
                CHANNELS 3 Zrotation Xrotation Yrotation
                JOINT RightForeArm
                {
                  OFFSET 28.7848 1.52588e-005 0
                  CHANNELS 3 Zrotation Xrotation Yrotation
                  JOINT RightHand
                  {
                    OFFSET 26.5688 1.52588e-005 0
                    CHANNELS 3 Zrotation Xrotation Yrotation
                    End Site
                    {
                      OFFSET 0 0 0
                    }
                  }
                }
              }
            }
            JOINT LeftShoulder
            {
              OFFSET 2.38034 -1.29275 -3.7523
              CHANNELS 3 Zrotation Xrotation Yrotation
              JOINT LeftArm
              {
                OFFSET 16.3182 6.10352e-005 0
                CHANNELS 3 Zrotation Xrotation Yrotation
                JOINT LeftForeArm
                {
                  OFFSET 27.0901 0 0
                  CHANNELS 3 Zrotation Xrotation Yrotation
                  JOINT LeftHand
                  {
                    OFFSET 24.5451 1.52588e-005 0
                    CHANNELS 3 Zrotation Xrotation Yrotation
                    End Site
                    {
                      OFFSET 0 0 0
                    }
                  }
                }
              }
            }
            JOINT Neck
            {
              OFFSET 5.0226 -0.0266342 0
              CHANNELS 3 Zrotation Xrotation Yrotation
              JOINT Head
              {
                OFFSET 6.69363 2.86102e-005 0
                CHANNELS 3 Zrotation Xrotation Yrotation
                End Site
                {
                  OFFSET 0 0 0
                }
              }
            }
          }
        }
      }
    }
  }
}
MOTION
Frames:	6
Frame Time:	0.0416667
-213.136 94.6959 194.361 -97.4277 -42.447 -96.1943 -178.143 25.1438 89.7467 -27.5985 20.4679 6.30337 65.8618 2.84059 -0.301829 9.81765 -9.81916 3.79273 174.875 -5.67535 89.4636 -32.9297 -5.68579 -2.13502 81.1354 -8.30311 -0.268485 30.4199 -1.51705 6.49224 1.11433 7.62023 -89.8882 11.6356 2.26906 -0.0130058 -0.0333903 2.26629 -0.112922 -22.5835 2.16803 0.669876 -2.57081 2.168 0.669858 90.3835 -43.4094 -101.64 19.6662 -21.3162 -18.4934 -20.7882 -17.8392 -24.1913 -9.24921 -0.0825487 -4.165 -88.2728 -51.7288 81.8548 -20.3288 7.47023 4.79952 7.29382 -13.8484 -24.8414 -2.17306 -0.080298 -0.487635 0.522199 -1.1092 3.3036 -0.672539 -1.70274 -7.37075 
-209.092 96.1848 188.691 -100.396 -47.7423 -99.8062 -176.634 25.4335 88.2286 -38.0814 10.2576 3.39452 67.7815 3.76306 -0.34986 8.43414 -9.51415 2.06942 174.344 -2.76088 89.8473 -32.9567 -2.22347 -0.63711 77.8855 -6.83066 -0.493029 28.2164 -1.68068 5.43826 0.188124 7.9307 -90.0484 11.013 0.352201 -0.129347 -0.657909 0.346157 -0.144726 -23.1935 0.374767 -0.0175125 -3.18088 0.374771 -0.0175109 90.2256 -44.3201 -101.662 20.8492 -17.2675 -12.4036 -20.5731 -14.8937 -24.3597 -11.4208 -0.1913 -3.14371 -89.5127 -47.2985 79.1101 -17.1295 9.00176 -4.78562 11.336 -6.20409 -30.2523 -0.703715 -0.0396036 -1.15518 -2.32048 1.12039 1.4357 1.90516 0.912481 -0.456549 
-205.784 97.1132 184.389 -101.281 -49.7859 -100.964 -175.086 23.7023 88.7662 -57.6261 18.2629 4.64807 66.3179 3.57304 1.43305 6.23708 -9.72384 0.653949 174.001 0.11927 90.0049 -32.0103 -2.03392 0.25473 74.7062 -5.42934 -0.430767 26.7206 -1.9334 5.24961 -0.347149 7.94332 -90.268 10.9854 -0.815116 -0.453879 -0.685296 -0.834289 -0.417571 -23.2215 -0.641025 -0.677876 -3.20885 -0.641022 -0.677882 90.4964 -45.6472 -100.887 23.0307 -14.0143 -5.36047 -19.5814 -12.8686 -21.9908 -10.3071 -0.252055 -2.25816 -88.6493 -43.0856 79.5313 -15.1529 10.2256 -15.6259 12.7526 -4.6507 -33.4601 -1.21042 -0.0805619 -3.38471 -5.24803 2.65149 1.23128 1.47403 2.59852 2.25327 
-202.747 97.0938 180.969 -101.753 -48.7917 -100.516 -174.098 13.9256 90.2686 -65.9368 22.4461 7.17665 63.7238 2.49887 1.58016 8.46814 -8.66516 0.579235 174.428 3.49704 90.3265 -33.4194 -2.94157 0.447573 73.2732 -4.77417 -0.608166 25.247 -2.29352 5.4251 -0.544484 7.91913 -90.5071 11.0303 -1.31874 -0.883272 -0.640202 -1.35635 -0.824374 -23.1764 -0.992333 -1.23877 -3.16377 -0.992326 -1.23877 91.7399 -46.0847 -98.7823 26.7632 -13.6826 -1.37439 -16.2256 -10.1063 -13.9019 -11.0966 -0.154205 -3.4848 -88.6956 -41.2569 79.0381 -15.7318 5.37546 -23.6251 13.7842 -3.13611 -32.6556 -0.714034 -0.104184 -5.37914 -6.94775 3.82515 1.77607 1.39661 3.79036 3.51684 
-199.635 96.7054 177.945 -102.313 -46.1893 -99.9058 -172.533 -0.413927 93.7068 -60.3432 30.6229 9.53914 62.5697 1.73848 -0.171221 11.3904 -7.43584 0.717051 174.814 7.07401 90.9293 -36.0819 -5.47831 0.361269 71.8257 -4.11611 -0.553011 24.0445 -2.51244 5.32378 -0.930053 7.79188 -90.6578 11.2797 -2.15709 -1.09577 -0.389808 -2.20322 -0.999729 -22.9313 -1.72809 -1.69346 -2.91863 -1.72808 -1.69346 90.0863 -46.4916 -101.333 30.2021 -14.695 2.81413 -14.4352 -11.1194 -9.26297 -11.0323 -0.120456 -3.87665 -88.0387 -41.284 80.1314 -21.4566 -0.803454 -23.17 14.797 -0.956556 -33.8208 -0.561361 -0.0853929 -4.10139 -9.74179 5.88448 5.25602 1.96642 5.68076 2.24498 
-195.497 95.9222 174.144 -101.648 -44.5429 -99.3774 -170.693 -10.45 93.8409 -49.2913 35.5876 9.57262 66.8633 3.59296 -0.602953 14.5118 -6.31732 1.25209 176.12 12.9148 91.5661 -39.3277 -6.64977 -0.815277 69.4797 -3.36775 -0.929693 23.8075 -2.36357 4.737 -1.25624 7.71073 -90.6839 11.4401 -2.81893 -1.07687 -0.228139 -2.86359 -0.951678 -22.7781 -2.36496 -1.87457 -2.76546 -2.36497 -1.87457 90.9648 -46.4685 -99.9373 32.9815 -14.5579 3.49375 -15.3771 -10.7211 -11.8966 -8.63575 0.0113645 -5.4103 -88.8269 -43.0888 79.2471 -21.3253 2.60316 -19.5396 10.669 -7.20175 -34.9932 -2.26488 -0.0856746 -5.49358 -10.4184 7.46782 7.47173 1.82972 7.18741 2.27616 
